<svg width="28" height="28" viewBox="0 0 28 28" fill="none" xmlns="http://www.w3.org/2000/svg">
<path fill-rule="evenodd" clip-rule="evenodd" d="M27.44 14.3177C27.44 13.325 27.3509 12.3705 27.1855 11.4541H14V16.8696H21.5345C21.21 18.6196 20.2236 20.1023 18.7409 21.095V24.6077H23.2655C25.9127 22.1705 27.44 18.5814 27.44 14.3177Z" fill="#4285F4"/>
<path fill-rule="evenodd" clip-rule="evenodd" d="M14.0001 28.0002C17.7801 28.0002 20.9491 26.7465 23.2655 24.6083L18.741 21.0956C17.4873 21.9356 15.8837 22.432 14.0001 22.432C10.3537 22.432 7.26732 19.9692 6.16641 16.6602H1.48914V20.2874C3.79277 24.8629 8.52732 28.0002 14.0001 28.0002Z" fill="#34A853"/>
<path fill-rule="evenodd" clip-rule="evenodd" d="M6.16637 16.6602C5.88637 15.8202 5.72728 14.9229 5.72728 14.0002C5.72728 13.0774 5.88637 12.1802 6.16637 11.3402V7.71289H1.48909C0.540909 9.60289 0 11.7411 0 14.0002C0 16.2593 0.540909 18.3974 1.48909 20.2874L6.16637 16.6602Z" fill="#FBBC05"/>
<path fill-rule="evenodd" clip-rule="evenodd" d="M14.0001 5.56818C16.0555 5.56818 17.901 6.27455 19.3519 7.66182L23.3673 3.64637C20.9428 1.38727 17.7737 0 14.0001 0C8.52732 0 3.79277 3.13727 1.48914 7.71273L6.16641 11.34C7.26732 8.03091 10.3537 5.56818 14.0001 5.56818Z" fill="#EA4335"/>
</svg>
